<svg xmlns="http://www.w3.org/2000/svg" viewBox="0 0 243.971 259.844">
  <polygon points="179.856 31.286 65.184 31.286 7.849 130.595 65.184 229.903 179.856 229.903 237.191 130.595 179.856 31.286" style="fill: #dab005"/>
  <g>
    <circle cx="141.984" cy="68.631" r="0.325" style="fill: none;stroke: #1d1d1b;stroke-miterlimit: 10;stroke-width: 20px"/>
    <circle cx="101.984" cy="68.631" r="0.325" style="fill: none;stroke: #1d1d1b;stroke-miterlimit: 10;stroke-width: 20px"/>
  </g>
  <path d="M398.608,251.113,356.78,178.666a38.463,38.463,0,0,0-30.655-19.088h-1.252l2.245-2.244a10.229,10.229,0,0,0,.7-13.9,10,10,0,0,0-14.6-.486l-14.13,14.13a8.5,8.5,0,0,1-6.015,2.491l-22.668,0a8.508,8.508,0,0,1-6.011-2.491L250.51,143.191a10.227,10.227,0,0,0-13.9-.7,10,10,0,0,0-.487,14.6l2.466,2.466h-.6a38.448,38.448,0,0,0-31.282,19.109L164.88,251.113a38.447,38.447,0,0,0,0,38.346l41.828,72.448a38.451,38.451,0,0,0,33.209,19.173h17.171a14.173,14.173,0,0,1,10.022,4.151l14.633,14.633,14.632-14.633A14.173,14.173,0,0,1,306.4,381.08h17.175a38.451,38.451,0,0,0,33.208-19.173l41.828-72.448A38.447,38.447,0,0,0,398.608,251.113ZM198.156,233.477l25.872-44.811a18.346,18.346,0,0,1,15.889-9.174h83.655a18.348,18.348,0,0,1,15.888,9.173l25.872,44.812A1.418,1.418,0,0,1,364.1,235.6H199.383A1.417,1.417,0,0,1,198.156,233.477Zm147.1,108.4-5.793,10.034a18.347,18.347,0,0,1-15.888,9.173H239.917a18.349,18.349,0,0,1-15.89-9.174l-5.792-10.033a1.417,1.417,0,0,1,1.227-2.126H344.026A1.417,1.417,0,0,1,345.253,341.873ZM369.544,299.8l-11.107,19.237a1.417,1.417,0,0,1-1.228.709H206.279a1.417,1.417,0,0,1-1.228-.709L193.944,299.8a1.418,1.418,0,0,1,1.228-2.126H368.316A1.418,1.418,0,0,1,369.544,299.8Zm13-23.011a1.4,1.4,0,0,1-1.318.885H182.262a1.4,1.4,0,0,1-1.317-.885,18.4,18.4,0,0,1,1.255-15.677l2.772-4.8a1.419,1.419,0,0,1,1.228-.708H377.288a1.417,1.417,0,0,1,1.227.708l2.773,4.8A18.4,18.4,0,0,1,382.543,276.79Z" transform="translate(-159.758 -140.02)" style="fill: #1d1d1b"/>
</svg>